<svg width="159" height="214" viewBox="0 0 159 214" fill="none" xmlns="http://www.w3.org/2000/svg">
<g id="logo">
<g id="TXT">
<path id="Vector" d="M68.3453 186.897H64.8041C64.0958 186.897 64.0958 187.251 64.0958 187.604V212.365C64.0958 212.718 64.4499 213.072 64.8041 213.072H68.3453C68.6994 213.072 69.0535 212.718 69.0535 212.365V187.604C69.0535 187.251 68.6994 186.897 68.3453 186.897Z" fill="#FED500"/>
<path id="Vector_2" d="M133.857 149.049H120.401C120.047 149.049 119.693 149.403 119.693 149.756V153.294C119.693 153.647 120.047 154.001 120.401 154.001H124.65V174.163C124.65 174.871 125.004 174.871 125.359 174.871H129.254C129.962 174.871 129.962 174.517 129.962 174.163V154.001H134.212C134.92 154.001 134.92 153.647 134.92 153.294V149.756C134.566 149.049 134.212 149.049 133.857 149.049Z" fill="#FED500"/>
<path id="Vector_3" d="M78.9688 174.517V164.966H84.2806V174.517C84.2806 175.224 84.6347 175.224 84.9888 175.224H88.53C89.2383 175.224 89.2383 174.871 89.2383 174.517V149.756C89.2383 149.403 88.8842 149.049 88.53 149.049H84.9888C84.6347 149.049 84.2806 149.403 84.2806 149.756V159.307H78.9688V149.756C78.9688 149.049 78.6147 149.049 78.2606 149.049H74.7194C74.0111 149.049 74.0111 149.403 74.0111 149.756V174.517C74.0111 174.871 74.3652 175.224 74.7194 175.224H78.2606C78.6147 175.224 78.9688 175.224 78.9688 174.517Z" fill="#FED500"/>
<path id="Vector_4" d="M14.873 149.049H11.686H4.24944H1.06236C0.35412 149.049 0 149.403 0 150.11V174.517C0 174.871 0.35412 175.224 0.70824 175.224H4.24944C4.60356 175.224 4.95768 174.871 4.95768 174.517V154.355H9.91537V174.517C9.91537 175.224 10.2695 175.224 10.6236 175.224H14.1648C14.873 175.224 14.873 174.871 14.873 174.517V150.11C15.5813 149.049 15.2272 149.049 14.873 149.049Z" fill="#FED500"/>
<path id="Vector_5" d="M40.3697 174.517V150.11C40.3697 149.403 40.0155 149.049 39.3073 149.049H36.1202H35.0579H31.8708C27.9755 149.049 26.2049 150.818 26.2049 154.709V162.49C26.2049 163.905 26.559 168.15 25.4966 169.918C24.7884 170.98 24.0801 171.333 23.3719 171.687C23.0178 172.041 22.6637 172.395 23.0178 172.748C23.0178 173.102 23.726 174.517 23.726 174.871C23.726 175.224 24.0801 175.578 24.7884 175.578C25.8507 175.224 27.2672 174.871 28.3296 173.809C29.7461 172.395 31.1625 170.98 31.1625 162.844V155.416C31.1625 153.647 32.2249 153.647 33.2873 153.647H34.7037V153.294V174.163C34.7037 174.871 35.0579 174.871 35.412 174.871H38.9532C40.3697 175.224 40.3697 174.871 40.3697 174.517Z" fill="#FED500"/>
<path id="Vector_6" d="M92.7795 186.897H89.2383C88.8842 186.897 88.5301 187.251 88.5301 187.604V197.155H83.2183V187.604C83.2183 186.897 82.8642 186.897 82.5101 186.897H78.9689C78.2606 186.897 78.2606 187.251 78.2606 187.604V212.365C78.2606 212.718 78.6147 213.072 78.9689 213.072H82.5101C82.8642 213.072 83.2183 212.718 83.2183 212.365V202.814H88.5301V212.365C88.5301 213.072 88.8842 213.072 89.2383 213.072H92.7795C93.4878 213.072 93.4878 212.718 93.4878 212.365V187.604C93.4878 187.604 93.4878 186.897 92.7795 186.897Z" fill="#FED500"/>
<path id="Vector_7" d="M102.341 175.224H112.256C112.964 175.224 113.318 174.871 113.318 174.163V170.626C113.318 169.918 113.318 169.918 112.61 169.918H104.111V164.966H109.777C110.486 164.966 110.486 164.613 110.486 163.905V160.368C110.486 159.661 110.131 159.307 109.423 159.307H107.298H105.174H103.757V153.647H111.194C111.902 153.647 111.902 153.294 111.902 152.94V149.403C111.902 148.695 111.548 148.342 110.84 148.342H102.695H102.341H99.5078C98.7996 148.342 98.4454 148.695 98.4454 149.403V174.163C98.4454 174.517 98.7996 174.871 99.1537 174.871L102.341 175.224Z" fill="#FED500"/>
<path id="Vector_8" d="M66.5746 174.163L59.8463 149.756C59.8463 149.049 59.4922 148.695 58.784 148.695H58.4299H55.2428H54.8887C54.1804 148.695 53.8263 149.049 53.8263 149.756L47.098 174.163C47.098 174.871 47.098 175.224 47.8063 175.224H51.3475C52.0557 175.224 52.4098 174.871 52.4098 174.517L53.1181 171.333H60.2005L60.9087 174.517C60.9087 174.871 61.2628 175.224 61.9711 175.224H65.5123C66.5746 175.224 66.9287 174.871 66.5746 174.163ZM54.5345 166.028L56.6593 157.892L57.0134 156.123L57.3675 157.892L59.4922 166.028H54.5345Z" fill="#FED500"/>
<path id="Vector_9" d="M157.938 174.163L151.209 149.756C151.209 149.049 150.855 148.695 150.147 148.695H149.793H146.606H146.252C145.543 148.695 145.189 149.049 145.189 149.756L138.461 174.163C138.461 174.871 138.461 175.224 139.169 175.224H142.711C143.419 175.224 143.773 174.871 143.773 174.517L144.481 171.333H151.564L152.272 174.517C152.272 174.871 152.626 175.224 153.334 175.224H156.875C157.584 175.224 157.938 174.871 157.938 174.163ZM145.898 166.028L148.022 157.892L148.376 156.123L148.731 157.892L150.855 166.028H145.898Z" fill="#FED500"/>
<path id="Vector_10" d="M110.131 186.897C105.174 186.897 101.278 189.727 101.278 195.386C101.278 199.277 101.278 199.631 101.278 204.583C101.278 210.596 104.82 213.426 110.131 213.426C115.443 213.426 118.984 210.242 118.984 204.583C118.984 200.692 118.984 200.692 118.984 195.74C118.63 190.08 115.089 186.897 110.131 186.897ZM113.319 205.29C113.319 207.413 111.902 208.828 109.777 208.828C107.653 208.828 106.236 207.413 106.236 205.29C106.236 203.168 106.236 196.801 106.236 195.386C106.236 193.264 107.653 191.849 109.777 191.849C111.902 191.849 113.319 193.264 113.319 195.386C113.319 197.155 113.319 203.522 113.319 205.29Z" fill="#FED500"/>
<path id="Vector_11" d="M55.2428 205.644C54.1804 201.753 52.0557 200.338 49.931 199.985C52.764 199.277 53.8263 197.155 54.5346 194.679C55.2428 192.556 56.3052 188.312 56.3052 188.312C56.3052 187.604 56.3052 187.251 55.5969 187.251H52.0557C51.7016 187.251 51.3475 187.251 50.9934 187.958C50.9934 187.958 49.5769 193.264 49.2228 194.679C48.8686 196.447 47.8063 197.155 46.3898 197.155H44.9733V187.958C44.9733 187.251 44.6192 187.251 44.2651 187.251H40.7239C40.0156 187.251 40.0156 187.604 40.0156 187.958V212.718C40.0156 213.072 40.3697 213.426 40.7239 213.426H44.2651C44.6192 213.426 44.9733 213.072 44.9733 212.718V202.814H46.3898C47.8063 202.814 49.931 203.522 50.2851 205.998C50.6392 207.766 51.7016 212.718 51.7016 212.718C51.7016 213.426 52.0557 213.426 52.764 213.426H56.3052C56.6593 213.426 57.0134 213.072 57.0134 212.365C57.0134 212.365 55.5969 207.766 55.2428 205.644Z" fill="#FED500"/>
</g>
<path id="Vector_12" d="M127.483 7.20773C133.149 -0.57409 143.773 -2.34268 151.563 3.31682C159.354 8.6226 161.125 19.2342 155.813 27.016C150.147 34.7978 139.523 36.5664 131.733 30.9069C123.942 25.6011 122.172 14.6358 127.483 7.20773Z" fill="#FED500"/>
<path id="Vector_13" d="M30.1002 72.9995C30.1002 45.7631 52.4098 23.8325 79.6771 23.8325C106.944 23.8325 128.9 46.1168 128.9 73.3532C128.9 100.59 106.59 122.52 79.3229 122.52C52.0557 122.52 30.1002 100.236 30.1002 72.9995Z" fill="#FED500"/>
</g>
</svg>
